<mxfile host="app.diagrams.net" modified="2023-11-24T02:04:27.685Z" agent="Mozilla/5.0 (Windows NT 10.0; Win64; x64) AppleWebKit/537.36 (KHTML, like Gecko) Chrome/119.0.6045.9 Safari/537.36" etag="SDFbUVoMo4DsfpfB5Nu8" version="22.1.3" type="github">
  <diagram id="prtHgNgQTEPvFCAcTncT" name="Page-1">
    <mxGraphModel dx="1420" dy="863" grid="1" gridSize="10" guides="1" tooltips="1" connect="1" arrows="1" fold="1" page="1" pageScale="1" pageWidth="827" pageHeight="1169" math="0" shadow="0">
      <root>
        <mxCell id="0" />
        <mxCell id="1" parent="0" />
        <mxCell id="ZtGSjHTx1bV2oGcEeOoH-4" value="" style="edgeStyle=orthogonalEdgeStyle;rounded=0;orthogonalLoop=1;jettySize=auto;html=1;" edge="1" parent="1" source="ZtGSjHTx1bV2oGcEeOoH-1" target="ZtGSjHTx1bV2oGcEeOoH-3">
          <mxGeometry relative="1" as="geometry" />
        </mxCell>
        <mxCell id="ZtGSjHTx1bV2oGcEeOoH-5" style="edgeStyle=orthogonalEdgeStyle;rounded=0;orthogonalLoop=1;jettySize=auto;html=1;" edge="1" parent="1" source="ZtGSjHTx1bV2oGcEeOoH-1" target="ZtGSjHTx1bV2oGcEeOoH-2">
          <mxGeometry relative="1" as="geometry">
            <Array as="points">
              <mxPoint x="444" y="170" />
              <mxPoint x="240" y="170" />
            </Array>
          </mxGeometry>
        </mxCell>
        <mxCell id="ZtGSjHTx1bV2oGcEeOoH-11" style="edgeStyle=orthogonalEdgeStyle;rounded=0;orthogonalLoop=1;jettySize=auto;html=1;" edge="1" parent="1" source="ZtGSjHTx1bV2oGcEeOoH-1" target="ZtGSjHTx1bV2oGcEeOoH-6">
          <mxGeometry relative="1" as="geometry">
            <Array as="points">
              <mxPoint x="444" y="170" />
              <mxPoint x="640" y="170" />
            </Array>
          </mxGeometry>
        </mxCell>
        <mxCell id="ZtGSjHTx1bV2oGcEeOoH-1" value="一龄集团" style="rounded=0;whiteSpace=wrap;html=1;" vertex="1" parent="1">
          <mxGeometry x="384" y="90" width="120" height="60" as="geometry" />
        </mxCell>
        <mxCell id="ZtGSjHTx1bV2oGcEeOoH-9" style="edgeStyle=orthogonalEdgeStyle;rounded=0;orthogonalLoop=1;jettySize=auto;html=1;" edge="1" parent="1" source="ZtGSjHTx1bV2oGcEeOoH-2" target="ZtGSjHTx1bV2oGcEeOoH-7">
          <mxGeometry relative="1" as="geometry" />
        </mxCell>
        <mxCell id="ZtGSjHTx1bV2oGcEeOoH-10" style="edgeStyle=orthogonalEdgeStyle;rounded=0;orthogonalLoop=1;jettySize=auto;html=1;" edge="1" parent="1" source="ZtGSjHTx1bV2oGcEeOoH-2" target="ZtGSjHTx1bV2oGcEeOoH-8">
          <mxGeometry relative="1" as="geometry" />
        </mxCell>
        <mxCell id="ZtGSjHTx1bV2oGcEeOoH-2" value="海南一龄" style="rounded=0;whiteSpace=wrap;html=1;" vertex="1" parent="1">
          <mxGeometry x="180" y="200" width="120" height="60" as="geometry" />
        </mxCell>
        <mxCell id="ZtGSjHTx1bV2oGcEeOoH-3" value="贵阳一龄" style="rounded=0;whiteSpace=wrap;html=1;" vertex="1" parent="1">
          <mxGeometry x="384" y="200" width="120" height="60" as="geometry" />
        </mxCell>
        <mxCell id="ZtGSjHTx1bV2oGcEeOoH-6" value="北京一龄" style="rounded=0;whiteSpace=wrap;html=1;" vertex="1" parent="1">
          <mxGeometry x="580" y="200" width="120" height="60" as="geometry" />
        </mxCell>
        <mxCell id="ZtGSjHTx1bV2oGcEeOoH-7" value="海南一龄" style="rounded=0;whiteSpace=wrap;html=1;" vertex="1" parent="1">
          <mxGeometry x="80" y="310" width="120" height="60" as="geometry" />
        </mxCell>
        <mxCell id="ZtGSjHTx1bV2oGcEeOoH-8" value="&lt;div&gt;三亚湾院区&lt;/div&gt;" style="rounded=0;whiteSpace=wrap;html=1;" vertex="1" parent="1">
          <mxGeometry x="260" y="310" width="120" height="60" as="geometry" />
        </mxCell>
      </root>
    </mxGraphModel>
  </diagram>
</mxfile>
